PathFileType	4	(x/y/z)	S02_PSF_T06
DataRate	CameraRate	NumFrames	NumMarkers	Units	OrigDataRate	OrigDataStartFrame	OrigNumFrames
240	240	4	51	mm	240	102	407
Frame#	Time	Sternum			R.Acromium			L.Acromium			Top.Head			R.ASIS			L.ASIS			R.PSIS			L.PSIS			R.Great.Tro			L.Great.Tro			R.Iliac.Crest			L.Iliac.Crest			V.Sacral			R.Thigh.Upper.Post			R.Thigh.Lower.Ant			R.Thigh.Lower.Post			R.Thigh.Upper.Ant			R.Knee.Lat			R.Knee.Med			R.Shank.Upper.Post			R.Shank.Lower.Ant			R.Shank.Lower.Post			R.Shank.Upper.Ant			R.Ankle.Lat			R.Ankle.Med			R.Heel.Upper			R.Heel.Med			R.Heel.Lat			R.Toe.Lat			R.Toe.Med			R.Toe.Tip			L.Thigh.Upper.Post			L.Thigh.Lower.Ant			L.Thigh.Lower.Post			L.Thigh.Upper.Ant			L.Knee.Lat			L.Knee.Med			L.Shank.Upper.Post			L.Shank.Lower.Ant			L.Shank.Lower.Post			L.Shank.Upper.Ant			L.Ankle.Lat			L.Ankle.Med			L.Heel.Upper			L.Heel.Med			L.Heel.Lat			L.Toe.Lat			L.Toe.Med			L.Toe.Tip			Cervical.Spine			Back			
		X1	Y1	Z1	X2	Y2	Z2	X3	Y3	Z3	X4	Y4	Z4	X5	Y5	Z5	X6	Y6	Z6	X7	Y7	Z7	X8	Y8	Z8	X9	Y9	Z9	X10	Y10	Z10	X11	Y11	Z11	X12	Y12	Z12	X13	Y13	Z13	X14	Y14	Z14	X15	Y15	Z15	X16	Y16	Z16	X17	Y17	Z17	X18	Y18	Z18	X19	Y19	Z19	X20	Y20	Z20	X21	Y21	Z21	X22	Y22	Z22	X23	Y23	Z23	X24	Y24	Z24	X25	Y25	Z25	X26	Y26	Z26	X27	Y27	Z27	X28	Y28	Z28	X29	Y29	Z29	X30	Y30	Z30	X31	Y31	Z31	X32	Y32	Z32	X33	Y33	Z33	X34	Y34	Z34	X35	Y35	Z35	X36	Y36	Z36	X37	Y37	Z37	X38	Y38	Z38	X39	Y39	Z39	X40	Y40	Z40	X41	Y41	Z41	X42	Y42	Z42	X43	Y43	Z43	X44	Y44	Z44	X45	Y45	Z45	X46	Y46	Z46	X47	Y47	Z47	X48	Y48	Z48	X49	Y49	Z49	X50	Y50	Z50	X51	Y51	Z51	

102	0.42083	-785	1105.6	291.7	-902.08	1342.5	425.47	-869.28	1345.9	134.62	-863.75	1630.1	282.43	-816.4	947.35	386.74	-812.37	926.88	177.53	-1028	976.85	338.1	-1038.1	982.07	266.35	-876.91	829.3	488.99	-951.24	833.04	97.853	-921.2	987.07	446.44	-937.3	974.09	116.78	-1058.4	931.19	298.51	-800.32	632.7	481.91	-718.75	579.43	450.37	-782.65	546	463.32	-740.95	665.24	466.15	-740.81	481.22	448.99	-730.46	468.84	306.86	-786.06	269.17	428.55	-698.38	202.05	424.42	-766.21	198.74	422.45	-713.67	269.3	438.1	-732.35	108.98	415.6	-711.37	127.19	333.64	-779.92	81.739	350.5	-755.36	55.028	325.1	-777.14	50.019	385.34	-628.52	68.494	455.64	-578.43	73.911	356.94	-547.75	108	419.3	-1016.9	621.03	134.14	-955.49	529.09	138.29	-1032.8	534.15	157.62	-946.81	621.58	115.87	-988.33	451.94	152	-988.72	452.91	291.25	-1103.3	304.99	157.02	-1057.7	204.09	176.66	-1126.9	233.25	178.89	-1047.5	277.25	159.31	-1123.2	113.06	192.22	-1113.8	109.27	273.76	-1188.5	83.764	225.24	-1183.1	58.314	258.8	-1184.2	56.36	196.94	-1020	34.915	171.27	-1000.5	44.227	280.89	-938.06	55.07	235.32	-960.91	1402.6	273.36	-1041.8	1153.8	272.33
103	0.425	-779.62	1104.5	291.9	-896.74	1341.5	425.75	-863.48	1345	135.07	-858.21	1629.1	283.13	-810.67	946.39	386.79	-807.27	925.71	177.54	-1022.3	976	338.69	-1033	981.35	266.93	-870.95	828.42	489.24	-946.79	832.64	98.213	-915.35	986.24	446.72	-932.28	973.13	117.15	-1052.9	930.41	299.22	-794.62	631.59	481.65	-713.59	578.08	449.27	-777.38	544.78	463.2	-735.48	663.99	465.02	-735.28	480.33	448.42	-726.54	467.44	305.87	-774.79	267.2	428.78	-685.25	202.58	424.38	-752.91	197.36	422.74	-702.42	269.47	438	-716.34	108.35	415.99	-696.25	126.83	333.96	-763.5	79.471	351.18	-738.26	53.377	325.78	-759.62	47.976	386.15	-611.12	70.902	455.57	-561.97	77.243	356.87	-531.76	112.56	418.81	-1013.8	621.22	134.23	-953.09	528.8	138.39	-1030.3	534.47	157.71	-943.66	621.21	115.96	-986.54	451.85	152.02	-987.14	452.83	291.21	-1102.3	305.38	157.11	-1057	204.33	176.68	-1126.1	233.76	178.91	-1046.5	277.42	159.34	-1122.8	113.42	192.26	-1113.5	109.63	273.81	-1188.3	84.281	225.27	-1182.9	58.858	258.85	-1184	56.912	196.98	-1019.9	34.918	171.28	-1000.5	44.223	280.88	-938.01	54.97	235.31	-955.31	1401.7	273.67	-1036.4	1153	272.4
104	0.42917	-774.23	1103.4	292.12	-891.38	1340.4	426.04	-857.67	1344.1	135.54	-852.66	1628.1	283.85	-804.93	945.35	386.84	-802.14	924.49	177.55	-1016.5	975.11	339.3	-1027.9	980.59	267.51	-865	827.42	489.46	-942.31	832.2	98.583	-909.46	985.33	447.03	-927.25	972.13	117.53	-1047.5	929.58	299.92	-788.88	630.42	481.42	-708.44	576.68	448.16	-772.07	543.5	463.12	-730	662.68	463.85	-729.72	479.39	447.92	-722.69	465.93	304.91	-763.63	265.37	429.01	-672.35	203.21	424.32	-739.8	196.13	423.02	-691.34	269.71	437.91	-700.6	107.92	416.35	-681.4	126.64	334.26	-747.36	77.447	351.85	-721.46	51.973	326.43	-742.37	46.191	386.92	-594.06	73.457	455.4	-545.93	80.699	356.7	-516.14	117.2	418.2	-1010.6	621.36	134.32	-950.6	528.47	138.49	-1027.8	534.76	157.82	-940.45	620.79	116.04	-984.66	451.73	152.05	-985.49	452.74	291.18	-1101.3	305.75	157.21	-1056.3	204.55	176.7	-1125.2	234.27	178.91	-1045.5	277.58	159.36	-1122.5	113.78	192.29	-1113.2	109.99	273.86	-1188.1	84.81	225.29	-1182.8	59.411	258.89	-1183.9	57.472	197.01	-1019.9	34.921	171.28	-1000.4	44.219	280.87	-937.94	54.871	235.3	-949.72	1400.7	273.99	-1030.9	1152.1	272.5
105	0.43333	-768.82	1102.2	292.36	-885.99	1339.3	426.34	-851.85	1343.1	136.03	-847.1	1627	284.58	-799.16	944.24	386.9	-796.98	923.23	177.56	-1010.8	974.17	339.91	-1022.8	979.8	268.1	-859.06	826.31	489.66	-937.78	831.71	98.958	-903.54	984.35	447.37	-922.19	971.09	117.91	-1042	928.71	300.62	-783.1	629.21	481.22	-703.26	575.24	447.04	-766.72	542.18	463.08	-724.51	661.33	462.66	-724.12	478.4	447.49	-718.89	464.31	304.01	-752.62	263.66	429.26	-659.72	203.94	424.24	-726.92	195.05	423.28	-680.45	270	437.83	-685.15	107.67	416.66	-666.85	126.61	334.51	-731.52	75.653	352.49	-705	50.799	327.03	-725.44	44.648	387.67	-577.38	76.125	455.14	-530.33	84.244	356.42	-500.94	121.88	417.47	-1007.3	621.45	134.41	-948.03	528.1	138.59	-1025.2	535	157.93	-937.15	620.33	116.13	-982.67	451.58	152.09	-983.75	452.63	291.18	-1100.2	306.12	157.3	-1055.5	204.76	176.72	-1124.3	234.79	178.91	-1044.4	277.73	159.37	-1122.1	114.14	192.32	-1112.8	110.35	273.9	-1187.9	85.351	225.3	-1182.6	59.976	258.93	-1183.7	58.043	197.03	-1019.9	34.923	171.29	-1000.4	44.214	280.86	-937.88	54.77	235.29	-944.12	1399.7	274.33	-1025.5	1151.2	272.62
